<svg fill="#002c94" height="151px" width="151px" version="1.1" id="Layer_1" xmlns="http://www.w3.org/2000/svg" xmlns:xlink="http://www.w3.org/1999/xlink" viewBox="-51.2 -51.2 614.40 614.40" xml:space="preserve" stroke="#002c94" stroke-width="0.00512" transform="rotate(0)matrix(1, 0, 0, 1, 0, 0)"><g id="SVGRepo_bgCarrier" stroke-width="0" transform="translate(0,0), scale(1)"><path transform="translate(-51.2, -51.2), scale(38.4)" fill="#7ed0ec" d="M9.166.33a2.25 2.25 0 00-2.332 0l-5.25 3.182A2.25 2.25 0 00.5 5.436v5.128a2.25 2.25 0 001.084 1.924l5.25 3.182a2.25 2.25 0 002.332 0l5.25-3.182a2.25 2.25 0 001.084-1.924V5.436a2.25 2.25 0 00-1.084-1.924L9.166.33z" strokewidth="0"></path></g><g id="SVGRepo_tracerCarrier" stroke-linecap="round" stroke-linejoin="round"></g><g id="SVGRepo_iconCarrier"> <g> <g> <path d="M450.34,342.134c-19.304,0-35.01,15.705-35.01,35.01s15.705,35.01,35.01,35.01c19.303,0,35.009-15.705,35.009-35.01 C485.349,357.839,469.645,342.134,450.34,342.134z M450.34,391.259c-7.783,0-14.115-6.332-14.115-14.115 c0-7.783,6.332-14.115,14.115-14.115c7.782,0,14.114,6.332,14.114,14.115C464.454,384.927,458.122,391.259,450.34,391.259z"></path> </g> </g> <g> <g> <path d="M450.34,267.848c-19.304,0-35.01,15.705-35.01,35.01c0,19.304,15.705,35.01,35.01,35.01 c19.303,0,35.009-15.705,35.009-35.01C485.349,283.554,469.645,267.848,450.34,267.848z M450.34,316.974 c-7.783,0-14.115-6.332-14.115-14.115c0-7.783,6.332-14.115,14.115-14.115c7.782,0,14.114,6.332,14.114,14.115 C464.454,310.642,458.122,316.974,450.34,316.974z"></path> </g> </g> <g> <g> <path d="M450.34,416.418c-19.304,0-35.01,15.705-35.01,35.01s15.705,35.01,35.01,35.01c19.303,0,35.009-15.705,35.009-35.01 C485.349,432.123,469.645,416.418,450.34,416.418z M450.34,465.544c-7.783,0-14.115-6.332-14.115-14.115 s6.332-14.115,14.115-14.115c7.782,0,14.114,6.332,14.114,14.115S458.122,465.544,450.34,465.544z"></path> </g> </g> <g> <g> <path d="M501.553,491.043h-0.137c-5.769,0-10.447,4.677-10.447,10.447c0,5.77,4.678,10.447,10.447,10.447h0.137 c5.77,0,10.447-4.677,10.447-10.447C512,495.72,507.322,491.043,501.553,491.043z"></path> </g> </g> <g> <g> <path d="M10.669,491.042h-0.138c-5.769,0-10.447,4.677-10.447,10.447s4.678,10.447,10.447,10.447h0.138 c5.769,0,10.447-4.677,10.447-10.447S16.438,491.042,10.669,491.042z"></path> </g> </g> <g> <g> <path d="M217.942,212.1c-6.439,0-11.678,5.238-11.678,11.678c0,6.439,5.239,11.677,11.678,11.677s11.678-5.238,11.678-11.677 C229.62,217.338,224.38,212.1,217.942,212.1z"></path> </g> </g> <g> <g> <path d="M294.143,212.1c-6.439,0-11.678,5.238-11.678,11.678c0,6.439,5.239,11.677,11.678,11.677s11.678-5.238,11.678-11.677 C305.821,217.338,300.582,212.1,294.143,212.1z"></path> </g> </g> <g> <g> <path d="M266.208,261.323H245.79c-5.769,0-10.447,4.677-10.447,10.447c0,11.39,9.267,20.656,20.656,20.656 s20.656-9.267,20.656-20.656C276.655,266,271.977,261.323,266.208,261.323z"></path> </g> </g> <g> <g> <path d="M58.505,0.062C26.245,0.062,0,26.307,0,58.566c0,28.692,20.767,52.609,48.057,57.552v114.295 c0,5.77,4.678,10.447,10.447,10.447s10.447-4.677,10.447-10.447V116.118c27.29-4.943,48.057-28.86,48.057-57.552 C117.009,26.307,90.765,0.062,58.505,0.062z M58.505,96.177c-20.739,0-37.61-16.871-37.61-37.61 c0-20.739,16.871-37.61,37.61-37.61c20.739,0,37.61,16.871,37.61,37.61C96.115,79.305,79.244,96.177,58.505,96.177z"></path> </g> </g> <g> <g> <path d="M78.845,49.166c0,0-40.68,0-40.68,0c-5.769,0-10.447,4.677-10.447,10.447S32.396,70.06,38.165,70.06h40.68 c5.769,0,10.447-4.677,10.447-10.447C89.292,53.843,84.614,49.166,78.845,49.166z"></path> </g> </g> <g> <g> <path d="M192.339,446.119h-0.137c-5.769,0-10.447,4.677-10.447,10.447c0,5.77,4.678,10.447,10.447,10.447h0.137 c5.77,0,10.447-4.677,10.447-10.447C202.786,450.797,198.107,446.119,192.339,446.119z"></path> </g> </g> <g> <g> <path d="M501.469,242.351h-102.26c-5.769,0-10.447,4.677-10.447,10.447v125.671c-2.797-2.05-5.807-3.777-8.992-5.105 l-67.236-28.014c-2.391-0.997-3.937-3.314-3.937-5.904v-16.219l27.465-15.701c0.195-0.111,0.385-0.229,0.573-0.352 c13.562-8.956,22.478-25.015,23.849-42.957c0.021-0.264,0.03-0.531,0.03-0.796v-8.673c13.567-4.413,23.401-17.18,23.401-32.2 c0-15.02-9.834-27.787-23.401-32.2v-17.331l3.467-11.25c29.831-14.147,36.283-30.795,36.283-42.517 c0-18.544-16.277-35.107-45.832-46.639c-26.447-10.318-61.39-16.001-98.391-16.001c-37,0-71.943,5.682-98.391,16.001 c-29.555,11.532-45.832,28.095-45.832,46.639c0,11.712,6.444,28.351,36.238,42.494l3.512,11.285v17.318 c-13.567,4.413-23.401,17.179-23.401,32.2c0,15.02,9.834,27.787,23.401,32.2v8.673c0,0.265,0.01,0.532,0.03,0.796 c1.367,17.869,10.345,33.929,24.018,42.958c0.184,0.121,0.37,0.236,0.56,0.346l27.309,15.658v16.267 c0,0.279-0.074,0.937-0.079,0.994c-0.34,2.176-1.776,4.044-3.856,4.91l-34.51,14.379c0-0.079,0.003-0.16,0.003-0.239 c0-45.494-37.013-82.506-82.506-82.506c-45.495,0-82.507,37.013-82.507,82.506s37.013,82.506,82.507,82.506 c6.787,0,13.431-0.836,19.888-2.436v51.484H44.467c-5.769,0-10.447,4.677-10.447,10.447c0,5.77,4.678,10.447,10.447,10.447h423.15 c5.769,0,10.447-4.678,10.447-10.447c0-5.769-4.678-10.447-10.447-10.447h-57.96v-70.639V263.246h81.365V468.06 c0,5.77,4.678,10.447,10.447,10.447s10.447-4.677,10.447-10.447V252.798C511.916,247.028,507.238,242.351,501.469,242.351z M148.602,127.678c-2.693,0.783-4.959,2.616-6.287,5.087c-0.155,0.288-0.292,0.583-0.418,0.882 c-5.924-4.823-9.184-9.797-9.184-14.396c0-17.431,46.919-41.745,123.329-41.745s123.329,24.313,123.329,41.745 c0,4.619-3.287,9.617-9.257,14.458c-0.134-0.324-0.285-0.641-0.452-0.953c-1.328-2.465-3.589-4.293-6.276-5.075 c-1.935-0.564-48.08-13.806-107.343-13.806C196.783,113.874,150.542,127.115,148.602,127.678z M347.235,145.157l-4.881,15.839 H169.707l-4.931-15.841c16.496-3.786,51.027-10.386,91.266-10.386C296.292,134.769,330.779,141.373,347.235,145.157z M186.882,289.57c-7.977-5.4-13.47-15.525-14.418-26.573v-17.049c0-5.77-4.678-10.447-10.447-10.447 c-7.143,0-12.954-5.812-12.954-12.954c0-7.142,5.812-12.954,12.954-12.954c5.769,0,10.447-4.677,10.447-10.447v-17.256H339.62 v17.256c0,5.77,4.678,10.447,10.447,10.447c7.143,0,12.954,5.812,12.954,12.954c0,7.142-5.812,12.954-12.954,12.954 c-5.769,0-10.447,4.677-10.447,10.447V263c-0.961,11.277-6.26,21.162-14.244,26.567l-56.254,32.159 c-0.195,0.111-0.385,0.229-0.573,0.352c-7.833,5.172-17.183,5.172-25.016,0c-0.183-0.121-0.37-0.236-0.56-0.346L186.882,289.57z M287.861,354.248c0,17.537-14.267,31.804-31.804,31.804c-17.537,0-31.805-14.267-31.805-31.804l0.07-19.124l7.989,4.581 c7.335,4.765,15.532,7.148,23.73,7.148c8.196,0,16.39-2.381,23.724-7.144l8.01-4.579L287.861,354.248z M139.537,336.125 l-25.601,6.744l18.899-18.899C135.501,327.734,137.759,331.804,139.537,336.125z M82.54,297.877 c13.222,0,25.475,4.201,35.521,11.318l-20.885,20.886c-4.411-2.204-9.38-3.452-14.636-3.452s-10.225,1.247-14.635,3.451 l-20.886-20.886C57.066,302.077,69.318,297.877,82.54,297.877z M32.244,323.969l18.9,18.9l-25.602-6.745 C27.32,331.803,29.577,327.733,32.244,323.969z M72.092,420.197c-29.012-4.979-51.166-30.297-51.166-60.708 c0-0.99,0.028-1.975,0.075-2.953l29.017,7.643c1.779,12.391,10.493,22.563,22.073,26.458V420.197z M82.54,371.454 c-6.597,0-11.965-5.368-11.965-11.965c0-6.597,5.368-11.965,11.965-11.965s11.965,5.368,11.965,11.965 C94.505,366.086,89.137,371.454,82.54,371.454z M102.503,417.795c-3.106,1.061-6.282,1.867-9.516,2.417v-29.577 c11.579-3.894,20.293-14.066,22.072-26.456l29.016-7.644c0.046,0.979,0.075,1.962,0.075,2.952c0,3.104-0.255,6.193-0.713,9.241 l-11.123,4.634C115.472,380.382,103.498,398.406,102.503,417.795z M123.323,491.044v-0.001v-24.029h35.081 c5.769,0,10.447-4.677,10.447-10.447c0-5.77-4.678-10.447-10.447-10.447h-35.081v-25.716c0-11.776,7.32-23.706,17.028-27.751 l24.591-10.246l72.201,108.637H123.323z M184.59,374.219l20.072-8.363c5.303,23.49,26.326,41.091,51.395,41.091 c25.066,0,46.085-17.596,51.392-41.081l19.974,8.322l-71.431,107.466L184.59,374.219z M274.842,491.043l72.229-108.667 l24.662,10.276c9.709,4.046,17.029,15.976,17.029,27.751v70.64H274.842z"></path> </g> </g> </g></svg>