<svg fill="#c2003a" version="1.1" id="Layer_1" xmlns="http://www.w3.org/2000/svg" xmlns:xlink="http://www.w3.org/1999/xlink" viewBox="430 796 200 200" enable-background="new 430 796 200 200" xml:space="preserve" stroke="#c2003a"><g id="SVGRepo_bgCarrier" stroke-width="0"></g><g id="SVGRepo_tracerCarrier" stroke-linecap="round" stroke-linejoin="round"></g><g id="SVGRepo_iconCarrier"> <g> <path d="M530,917.839c-5.365,0-10.573-0.669-15.559-1.912v60.892L530,996l15.558-19.182v-60.892 C540.574,917.17,535.365,917.839,530,917.839z"></path> <path d="M530,796c-31.739,0-57.468,25.727-57.468,57.467c0,31.741,25.729,57.466,57.468,57.466s57.467-25.726,57.467-57.466 C587.468,821.727,561.739,796,530,796z M521.691,844.465c-6.848,7.18-16.788,8.817-22.202,3.655 c-5.412-5.163-4.249-15.168,2.598-22.349c6.848-7.181,16.788-8.817,22.202-3.655C529.701,827.278,528.538,837.284,521.691,844.465z "></path> </g> </g></svg>